<mxfile host="app.diagrams.net" modified="2020-08-20T17:37:22.224Z" agent="5.0 (Windows NT 10.0; Win64; x64) AppleWebKit/537.36 (KHTML, like Gecko) Chrome/84.0.4147.89 Safari/537.36" etag="tly7cbYRVv92eT43fIyH" version="13.6.4" type="github">
  <diagram id="C5RBs43oDa-KdzZeNtuy" name="Page-1">
    <mxGraphModel dx="1422" dy="762" grid="1" gridSize="10" guides="1" tooltips="1" connect="1" arrows="1" fold="1" page="1" pageScale="1" pageWidth="827" pageHeight="1169" math="0" shadow="0">
      <root>
        <mxCell id="WIyWlLk6GJQsqaUBKTNV-0" />
        <mxCell id="WIyWlLk6GJQsqaUBKTNV-1" parent="WIyWlLk6GJQsqaUBKTNV-0" />
        <mxCell id="0-Yrpr5TJiJ0qa2s8P8Z-0" value="ceai-lab" style="rounded=0;whiteSpace=wrap;html=1;" vertex="1" parent="WIyWlLk6GJQsqaUBKTNV-1">
          <mxGeometry x="330" y="20" width="150" height="40" as="geometry" />
        </mxCell>
        <mxCell id="0-Yrpr5TJiJ0qa2s8P8Z-2" value="" style="endArrow=classic;html=1;exitX=0.474;exitY=1.013;exitDx=0;exitDy=0;exitPerimeter=0;" edge="1" parent="WIyWlLk6GJQsqaUBKTNV-1" source="0-Yrpr5TJiJ0qa2s8P8Z-0">
          <mxGeometry width="50" height="50" relative="1" as="geometry">
            <mxPoint x="430" y="190" as="sourcePoint" />
            <mxPoint x="401" y="120" as="targetPoint" />
          </mxGeometry>
        </mxCell>
        <mxCell id="0-Yrpr5TJiJ0qa2s8P8Z-3" value="infra" style="rounded=0;whiteSpace=wrap;html=1;" vertex="1" parent="WIyWlLk6GJQsqaUBKTNV-1">
          <mxGeometry x="320" y="120" width="160" height="30" as="geometry" />
        </mxCell>
        <mxCell id="0-Yrpr5TJiJ0qa2s8P8Z-5" value="" style="endArrow=classic;html=1;exitX=0.474;exitY=1.013;exitDx=0;exitDy=0;exitPerimeter=0;" edge="1" parent="WIyWlLk6GJQsqaUBKTNV-1">
          <mxGeometry width="50" height="50" relative="1" as="geometry">
            <mxPoint x="399.52" y="149.99999999999994" as="sourcePoint" />
            <mxPoint x="399.5" y="198.95999999999998" as="targetPoint" />
          </mxGeometry>
        </mxCell>
        <mxCell id="0-Yrpr5TJiJ0qa2s8P8Z-6" value="UAT" style="rounded=0;whiteSpace=wrap;html=1;" vertex="1" parent="WIyWlLk6GJQsqaUBKTNV-1">
          <mxGeometry x="320" y="200" width="160" height="40" as="geometry" />
        </mxCell>
        <mxCell id="0-Yrpr5TJiJ0qa2s8P8Z-8" value="" style="endArrow=classic;html=1;exitX=0.474;exitY=1.013;exitDx=0;exitDy=0;exitPerimeter=0;" edge="1" parent="WIyWlLk6GJQsqaUBKTNV-1">
          <mxGeometry width="50" height="50" relative="1" as="geometry">
            <mxPoint x="399.52" y="240" as="sourcePoint" />
            <mxPoint x="399.5" y="288.96000000000004" as="targetPoint" />
          </mxGeometry>
        </mxCell>
        <mxCell id="0-Yrpr5TJiJ0qa2s8P8Z-9" value="DEV" style="rounded=0;whiteSpace=wrap;html=1;" vertex="1" parent="WIyWlLk6GJQsqaUBKTNV-1">
          <mxGeometry x="130" y="200" width="160" height="40" as="geometry" />
        </mxCell>
        <mxCell id="0-Yrpr5TJiJ0qa2s8P8Z-10" value="PROD" style="rounded=0;whiteSpace=wrap;html=1;" vertex="1" parent="WIyWlLk6GJQsqaUBKTNV-1">
          <mxGeometry x="520" y="200" width="160" height="40" as="geometry" />
        </mxCell>
        <mxCell id="0-Yrpr5TJiJ0qa2s8P8Z-11" value="" style="endArrow=classic;html=1;exitX=0.474;exitY=1.013;exitDx=0;exitDy=0;exitPerimeter=0;entryX=0.5;entryY=0;entryDx=0;entryDy=0;" edge="1" parent="WIyWlLk6GJQsqaUBKTNV-1">
          <mxGeometry width="50" height="50" relative="1" as="geometry">
            <mxPoint x="400.02" y="151.04" as="sourcePoint" />
            <mxPoint x="240" y="200" as="targetPoint" />
          </mxGeometry>
        </mxCell>
        <mxCell id="0-Yrpr5TJiJ0qa2s8P8Z-12" value="" style="endArrow=classic;html=1;exitX=0.474;exitY=1.013;exitDx=0;exitDy=0;exitPerimeter=0;entryX=0.306;entryY=-0.05;entryDx=0;entryDy=0;entryPerimeter=0;" edge="1" parent="WIyWlLk6GJQsqaUBKTNV-1" target="0-Yrpr5TJiJ0qa2s8P8Z-10">
          <mxGeometry width="50" height="50" relative="1" as="geometry">
            <mxPoint x="400.02" y="151.03999999999996" as="sourcePoint" />
            <mxPoint x="576.0799999999999" y="189" as="targetPoint" />
          </mxGeometry>
        </mxCell>
      </root>
    </mxGraphModel>
  </diagram>
</mxfile>
